<svg width="776" height="360" viewBox="0 0 776 360" fill="none" xmlns="http://www.w3.org/2000/svg">
<g clip-path="url(#clip0_425_6284)">
<path opacity="0.1" d="M45.6472 -10H0V33.9194M45.6472 -10V33.9194M45.6472 -10H91.2943M0 33.9194H45.6472M0 33.9194V77.8392M45.6472 33.9194H91.2943M45.6472 33.9194V77.8392M91.2943 -10V33.9194M91.2943 -10H136.941M91.2943 33.9194H136.941M91.2943 33.9194V77.8392M45.6472 77.8392H0M45.6472 77.8392H91.2943M45.6472 77.8392V121.758M0 77.8392V121.758M136.941 -10V33.9194M136.941 -10H182.589M136.941 33.9194H182.589M136.941 33.9194V77.8392M91.2943 77.8392H136.941M91.2943 77.8392V121.758M182.589 -10V33.9194M182.589 -10H228.236M182.589 33.9194H228.236M182.589 33.9194V77.8392M136.941 77.8392H182.589M136.941 77.8392V121.758M228.236 -10V33.9194M228.236 -10H273.883M228.236 33.9194H273.883M228.236 33.9194V77.8392M182.589 77.8392H228.236M182.589 77.8392V121.758M273.883 -10V33.9194M273.883 -10H319.53M273.883 33.9194H319.53M273.883 33.9194V77.8392M228.236 77.8392H273.883M228.236 77.8392V121.758M319.53 -10V33.9194M319.53 -10H365.177M319.53 33.9194H365.177M319.53 33.9194V77.8392M273.883 77.8392H319.53M273.883 77.8392V121.758M365.177 -10V33.9194M365.177 -10H410.824M365.177 33.9194H410.824M365.177 33.9194V77.8392M319.53 77.8392H365.177M319.53 77.8392V121.758M410.824 -10V33.9194M410.824 -10H456.472M410.824 33.9194H456.472M410.824 33.9194V77.8392M365.177 77.8392H410.824M365.177 77.8392V121.758M456.472 -10V33.9194M456.472 -10H502.118M456.472 33.9194H502.118M456.472 33.9194V77.8392M410.824 77.8392H456.472M410.824 77.8392V121.758M502.118 -10V33.9194M502.118 -10H547.766M502.118 33.9194H547.766M502.118 33.9194V77.8392M456.472 77.8392H502.118M456.472 77.8392V121.758M547.766 -10V33.9194M547.766 -10H593.414M547.766 33.9194H593.414M547.766 33.9194V77.8392M502.118 77.8392H547.766M502.118 77.8392V121.758M593.414 -10V33.9194M593.414 -10H639.059M593.414 33.9194H639.059M593.414 33.9194V77.8392M547.766 77.8392H593.414M547.766 77.8392V121.758M639.059 -10V33.9194M639.059 -10H684.707M639.059 33.9194H684.707M639.059 33.9194V77.8392M593.414 77.8392H639.059M593.414 77.8392V121.758M684.707 -10V33.9194M684.707 -10H730.356M684.707 33.9194H730.356M684.707 33.9194V77.8392M639.059 77.8392H684.707M639.059 77.8392V121.758M730.356 -10V33.9194M730.356 -10H776V33.9194M730.356 33.9194H776M730.356 33.9194V77.8392M684.707 77.8392H730.356M684.707 77.8392V121.758M776 33.9194V77.8392M730.356 77.8392H776M730.356 77.8392V121.758M776 77.8392V121.758M45.6472 121.758H0M45.6472 121.758H91.2943M45.6472 121.758V165.678M0 121.758V165.678M91.2943 121.758H136.941M91.2943 121.758V165.678M136.941 121.758H182.589M136.941 121.758V165.678M182.589 121.758H228.236M182.589 121.758V165.678M228.236 121.758H273.883M228.236 121.758V165.678M273.883 121.758H319.53M273.883 121.758V165.678M319.53 121.758H365.177M319.53 121.758V165.678M365.177 121.758H410.824M365.177 121.758V165.678M410.824 121.758H456.472M410.824 121.758V165.678M456.472 121.758H502.118M456.472 121.758V165.678M502.118 121.758H547.766M502.118 121.758V165.678M547.766 121.758H593.414M547.766 121.758V165.678M593.414 121.758H639.059M593.414 121.758V165.678M639.059 121.758H684.707M639.059 121.758V165.678M684.707 121.758H730.356M684.707 121.758V165.678M730.356 121.758H776M730.356 121.758V165.678M776 121.758V165.678M45.6472 165.678H0M45.6472 165.678H91.2943M45.6472 165.678V209.597M0 165.678V209.597M91.2943 165.678H136.941M91.2943 165.678V209.597M136.941 165.678H182.589M136.941 165.678V209.597M182.589 165.678H228.236M182.589 165.678V209.597M228.236 165.678H273.883M228.236 165.678V209.597M273.883 165.678H319.53M273.883 165.678V209.597M319.53 165.678H365.177M319.53 165.678V209.597M365.177 165.678H410.824M365.177 165.678V209.597M410.824 165.678H456.472M410.824 165.678V209.597M456.472 165.678H502.118M456.472 165.678V209.597M502.118 165.678H547.766M502.118 165.678V209.597M547.766 165.678H593.414M547.766 165.678V209.597M593.414 165.678H639.059M593.414 165.678V209.597M639.059 165.678H684.707M639.059 165.678V209.597M684.707 165.678H730.356M684.707 165.678V209.597M730.356 165.678H776M730.356 165.678V209.597M776 165.678V209.597M45.6472 209.597H0M45.6472 209.597H91.2943M45.6472 209.597V253.517M0 209.597V253.517M91.2943 209.597H136.941M91.2943 209.597V253.517M136.941 209.597H182.589M136.941 209.597V253.517M182.589 209.597H228.236M182.589 209.597V253.517M228.236 209.597H273.883M228.236 209.597V253.517M273.883 209.597H319.53M273.883 209.597V253.517M319.53 209.597H365.177M319.53 209.597V253.517M365.177 209.597H410.824M365.177 209.597V253.517M410.824 209.597H456.472M410.824 209.597V253.517M456.472 209.597H502.118M456.472 209.597V253.517M502.118 209.597H547.766M502.118 209.597V253.517M547.766 209.597H593.414M547.766 209.597V253.517M593.414 209.597H639.059M593.414 209.597V253.517M639.059 209.597H684.707M639.059 209.597V253.517M684.707 209.597H730.356M684.707 209.597V253.517M730.356 209.597H776M730.356 209.597V253.517M776 209.597V253.517M45.6472 253.517H0M45.6472 253.517H91.2943M45.6472 253.517V297.436M0 253.517V297.436M91.2943 253.517H136.941M91.2943 253.517V297.436M136.941 253.517H182.589M136.941 253.517V297.436M182.589 253.517H228.236M182.589 253.517V297.436M228.236 253.517H273.883M228.236 253.517V297.436M273.883 253.517H319.53M273.883 253.517V297.436M319.53 253.517H365.177M319.53 253.517V297.436M365.177 253.517H410.824M365.177 253.517V297.436M410.824 253.517H456.472M410.824 253.517V297.436M456.472 253.517H502.118M456.472 253.517V297.436M502.118 253.517H547.766M502.118 253.517V297.436M547.766 253.517H593.414M547.766 253.517V297.436M593.414 253.517H639.059M593.414 253.517V297.436M639.059 253.517H684.707M639.059 253.517V297.436M684.707 253.517H730.356M684.707 253.517V297.436M730.356 253.517H776M730.356 253.517V297.436M776 253.517V297.436M45.6472 297.436H0M45.6472 297.436H91.2943M45.6472 297.436V341.355M0 297.436V341.355M91.2943 297.436H136.941M91.2943 297.436V341.355M136.941 297.436H182.589M136.941 297.436V341.355M182.589 297.436H228.236M182.589 297.436V341.355M228.236 297.436H273.883M228.236 297.436V341.355M273.883 297.436H319.53M273.883 297.436V341.355M319.53 297.436H365.177M319.53 297.436V341.355M365.177 297.436H410.824M365.177 297.436V341.355M410.824 297.436H456.472M410.824 297.436V341.355M456.472 297.436H502.118M456.472 297.436V341.355M502.118 297.436H547.766M502.118 297.436V341.355M547.766 297.436H593.414M547.766 297.436V341.355M593.414 297.436H639.059M593.414 297.436V341.355M639.059 297.436H684.707M639.059 297.436V341.355M684.707 297.436H730.356M684.707 297.436V341.355M730.356 297.436H776M730.356 297.436V341.355M776 297.436V341.355M45.6472 341.355H0M45.6472 341.355H91.2943M45.6472 341.355V385.275M0 341.355V385.275M91.2943 341.355H136.941M91.2943 341.355V385.275M136.941 341.355H182.589M136.941 341.355V385.275M182.589 341.355H228.236M182.589 341.355V385.275M228.236 341.355H273.883M228.236 341.355V385.275M273.883 341.355H319.53M273.883 341.355V385.275M319.53 341.355H365.177M319.53 341.355V385.275M365.177 341.355H410.824M365.177 341.355V385.275M410.824 341.355H456.472M410.824 341.355V385.275M456.472 341.355H502.118M456.472 341.355V385.275M502.118 341.355H547.766M502.118 341.355V385.275M547.766 341.355H593.414M547.766 341.355V385.275M593.414 341.355H639.059M593.414 341.355V385.275M639.059 341.355H684.707M639.059 341.355V385.275M684.707 341.355H730.356M684.707 341.355V385.275M730.356 341.355H776M730.356 341.355V385.275M776 341.355V385.275M45.6472 385.275H0M45.6472 385.275H91.2943M45.6472 385.275V429.194M0 385.275V429.194M91.2943 385.275H136.941M91.2943 385.275V429.194M136.941 385.275H182.589M136.941 385.275V429.194M182.589 385.275H228.236M182.589 385.275V429.194M228.236 385.275H273.883M228.236 385.275V429.194M273.883 385.275H319.53M273.883 385.275V429.194M319.53 385.275H365.177M319.53 385.275V429.194M365.177 385.275H410.824M365.177 385.275V429.194M410.824 385.275H456.472M410.824 385.275V429.194M456.472 385.275H502.118M456.472 385.275V429.194M502.118 385.275H547.766M502.118 385.275V429.194M547.766 385.275H593.414M547.766 385.275V429.194M593.414 385.275H639.059M593.414 385.275V429.194M639.059 385.275H684.707M639.059 385.275V429.194M684.707 385.275H730.356M684.707 385.275V429.194M730.356 385.275H776M730.356 385.275V429.194M776 385.275V429.194M45.6472 429.194H0M45.6472 429.194H91.2943M45.6472 429.194V473.114M0 429.194V473.114M91.2943 429.194H136.941M91.2943 429.194V473.114M136.941 429.194H182.589M136.941 429.194V473.114M182.589 429.194H228.236M182.589 429.194V473.114M228.236 429.194H273.883M228.236 429.194V473.114M273.883 429.194H319.53M273.883 429.194V473.114M319.53 429.194H365.177M319.53 429.194V473.114M365.177 429.194H410.824M365.177 429.194V473.114M410.824 429.194H456.472M410.824 429.194V473.114M456.472 429.194H502.118M456.472 429.194V473.114M502.118 429.194H547.766M502.118 429.194V473.114M547.766 429.194H593.414M547.766 429.194V473.114M593.414 429.194H639.059M593.414 429.194V473.114M639.059 429.194H684.707M639.059 429.194V473.114M684.707 429.194H730.356M684.707 429.194V473.114M730.356 429.194H776M730.356 429.194V473.114M776 429.194V473.114M45.6472 473.114H0M45.6472 473.114H91.2943M45.6472 473.114V517.033M0 473.114V517.033H45.6472M91.2943 473.114H136.941M91.2943 473.114V517.033M136.941 473.114H182.589M136.941 473.114V517.033M182.589 473.114H228.236M182.589 473.114V517.033M228.236 473.114H273.883M228.236 473.114V517.033M273.883 473.114H319.53M273.883 473.114V517.033M319.53 473.114H365.177M319.53 473.114V517.033M365.177 473.114H410.824M365.177 473.114V517.033M410.824 473.114H456.472M410.824 473.114V517.033M456.472 473.114H502.118M456.472 473.114V517.033M502.118 473.114H547.766M502.118 473.114V517.033M547.766 473.114H593.414M547.766 473.114V517.033M593.414 473.114H639.059M593.414 473.114V517.033M639.059 473.114H684.707M639.059 473.114V517.033M684.707 473.114H730.356M684.707 473.114V517.033M730.356 473.114H776M730.356 473.114V517.033M776 473.114V517.033H730.356M45.6472 517.033H91.2943M91.2943 517.033H136.941M136.941 517.033H182.589M182.589 517.033H228.236M228.236 517.033H273.883M273.883 517.033H319.53M319.53 517.033H365.177M365.177 517.033H410.824M410.824 517.033H456.472M456.472 517.033H502.118M502.118 517.033H547.766M547.766 517.033H593.414M593.414 517.033H639.059M639.059 517.033H684.707M684.707 517.033H730.356" stroke="url(#paint0_radial_425_6284)" stroke-width="0.538889"/>
</g>
<defs>
<radialGradient id="paint0_radial_425_6284" cx="0" cy="0" r="1" gradientUnits="userSpaceOnUse" gradientTransform="translate(388 181.75) rotate(90) scale(180.75 266.135)">
<stop stop-color="#2E1401"/>
<stop offset="1" stop-color="#2E1401" stop-opacity="0.3"/>
</radialGradient>
<clipPath id="clip0_425_6284">
<rect width="776" height="360" fill="white"/>
</clipPath>
</defs>
</svg>
